<svg width="40" height="40" viewBox="0 0 40 40" fill="none" xmlns="http://www.w3.org/2000/svg">
<path d="M26.3634 20L38.6821 7.68137C40.4393 5.92414 40.4393 3.07516 38.6821 1.31792C36.9248 -0.439308 34.076 -0.439308 32.3186 1.31792L20 13.6366L7.68137 1.31792C5.92414 -0.439308 3.07516 -0.439308 1.31792 1.31792C-0.439308 3.07516 -0.439308 5.92414 1.31792 7.68137L13.6366 20L1.31792 32.3186C-0.439308 34.0759 -0.439308 36.9248 1.31792 38.6821C2.19654 39.5606 3.34807 40 4.4996 40C5.65113 40 6.80276 39.5607 7.68128 38.6821L20 26.3634L32.3186 38.6821C33.1972 39.5606 34.3488 40 35.5003 40C36.6518 40 37.8034 39.5607 38.682 38.6821C40.4392 36.9248 40.4392 34.0759 38.682 32.3186L26.3634 20Z" fill="#2B3B47"/>
</svg>
